PathFileType	4	(X/Y/Z)	Patient4_TMGait_0pt5_01_left_05.trc.trc
DataRate	CameraRate	NumFrames	NumMarkers	Units	OrigDataRate	OrigDataStartFrame	OrigNumFrames
71.065989847716	71.065989847716	7	33	mm	71.065989847716	18	       141
Frame#	Time	L.ASIS			Sacral			L.Shoulder			Chest			R.Shoulder			Neck			R.ASIS			R.Thigh.Superior			R.Thigh.Lateral			R.Thigh.Inferior			R.Patella			L.Thigh.Superior			L.Thigh.Lateral			L.Thigh.Inferior			L.Patella			L.Shank.Superior			L.Shank.Lateral			L.Shank.Inferior			R.Shank.Superior			R.Shank.Lateral			R.Shank.Inferior			R.Heel			R.Midfoot.Superior			R.Midfoot.Lateral			R.Toe			L.Heel			L.Midfoot.Lateral			L.Midfoot.Superior			L.Toe			L.Elbow			L.Wrist			R.Elbow			R.Wrist			
		X1	Y1	Z1	X2	Y2	Z2	X3	Y3	Z3	X4	Y4	Z4	X5	Y5	Z5	X6	Y6	Z6	X7	Y7	Z7	X8	Y8	Z8	X9	Y9	Z9	X10	Y10	Z10	X11	Y11	Z11	X12	Y12	Z12	X13	Y13	Z13	X14	Y14	Z14	X15	Y15	Z15	X16	Y16	Z16	X17	Y17	Z17	X18	Y18	Z18	X19	Y19	Z19	X20	Y20	Z20	X21	Y21	Z21	X22	Y22	Z22	X23	Y23	Z23	X24	Y24	Z24	X25	Y25	Z25	X26	Y26	Z26	X27	Y27	Z27	X28	Y28	Z28	X29	Y29	Z29	X30	Y30	Z30	X31	Y31	Z31	X32	Y32	Z32	X33	Y33	Z33	

18	6.809214285714	701.597315727352	963.928979431061	374.386316399083	506.653284028179	1005.870238324076	556.117438962040	660.949142738859	1438.713706525608	366.481264544965	779.628105764930	1364.324919906804	513.684988619798	715.770059635091	1434.745171662098	697.787226412278	678.655289447380	1495.639688022898	518.077575479770	743.645931328130	940.121887975058	646.634201033951	754.336128003514	731.360377246906	614.201176748972	661.230060187850	631.099782183230	678.508396020365	721.473997605518	570.580679380943	594.016018335935	707.767179070743	484.395363015692	598.244399040502	776.242576375499	773.786281049013	402.503191695764	726.192954829463	651.247132858152	323.332490450524	823.827282813639	587.374423397768	388.707411273532	851.937252667923	527.486783136627	384.642227008606	842.617709272761	458.893362418866	370.445269674708	794.105669280648	323.712019179947	313.307374617691	890.197384011585	233.948680070328	370.191101537478	673.943702833391	398.540034390419	603.910212726879	595.980363396908	299.585757892071	663.400258381232	628.969159905102	203.322014606414	597.975637874458	483.737695242549	43.842973811153	563.754831833730	654.271089402421	96.365437414412	604.115564887217	565.000215854854	36.226884060594	640.117017882259	773.538140536045	41.089111937183	635.554895944907	825.895466372066	43.053205040526	402.079367249058	903.449022761815	57.323887989299	326.476637491172	962.494312555800	143.548068287850	349.542288228987	1099.810731087734	132.761324671795	332.307412457089	581.270948968453	1091.372327346686	255.979590018172	621.721691072718	836.179615464253	223.375238235572	813.629949282544	1109.343772021706	817.337732336387	1064.755526994633	1107.701756319471	776.263225535597	
19	6.823285714286	702.245264291542	962.636022736122	373.360844739444	506.969175589906	1005.005129092391	554.823349910527	660.684242610800	1437.876330268802	365.003803280755	779.360803596644	1363.641503404544	512.238872760466	715.408304286629	1434.088911165628	696.288491101762	678.207851076979	1494.844994084677	516.650770068634	743.825092138465	939.638228014003	645.876867500660	753.072930874875	730.393746169977	613.936095853915	658.880102041009	630.681289632717	678.115982818746	718.776968570780	569.621499115842	593.906535870003	704.333223649484	483.370092835932	598.013049807653	776.910521320211	772.547169279508	401.071419386030	725.315665165699	649.150750669070	323.270949054299	823.892839021106	585.896656200289	387.426493763085	851.588724006078	526.059019030469	384.277953308566	842.383530917576	457.378852650328	370.547321165732	793.942087793019	322.205744284125	314.070101056445	890.170765492756	232.845568167958	370.807058008759	669.690900324266	397.805184348868	603.706510381003	590.975482029023	299.550509489919	663.358544109370	623.058058154422	202.977905859399	597.936933890532	476.716163216910	43.911349451645	563.822527737805	647.359058838240	96.323057153066	604.254478327374	557.988688959853	36.154082458944	640.080630346348	766.510484794451	40.898123986302	635.581270565662	825.697430298510	43.372560840318	403.631613403402	903.030127844534	56.358166663512	327.765869561065	962.975824873310	141.658821864231	350.292742866591	1099.823749488470	129.140188696226	332.801369956274	578.458922140779	1091.328694237942	254.635302638012	616.362109895133	835.891104899215	221.700285253673	816.903101862992	1109.399864797242	813.936296391356	1067.178225162889	1114.380610002557	770.461474886918	
20	6.837357142857	703.285837893571	961.183035601715	372.292791166032	507.421379925581	1003.979208765607	553.221931955018	660.428698911012	1436.860116474175	363.264170969352	779.085160538129	1362.913604058971	510.621306939655	714.880490407186	1433.372326433975	694.576680681721	677.637871337937	1493.931527163075	514.965500417012	744.145576221543	939.044788826750	645.114171180864	751.986349644149	729.312645121507	613.674456006778	656.689457490054	630.179618139166	677.669571832553	716.297269546553	568.560484335296	593.767920112408	701.070354583180	482.214090134663	597.706105951875	778.195785500336	771.232215142190	399.644965530968	724.911231677265	646.871147359030	323.363598451989	824.459986434824	584.288702596104	386.253566666566	851.582490465394	524.153042971396	384.021205112456	842.111525060454	455.175170822186	370.820652734049	792.700862460457	320.371529122919	315.025086009460	888.364336386179	230.673039258408	371.625002336829	665.587688715907	396.962825529005	603.461420079544	586.069605552354	299.462797231168	663.315443451503	617.162325151058	202.562431095951	597.883249310417	469.650692312954	43.943612263765	563.909307638466	640.395771184415	96.262798626322	604.394536365452	550.933641500550	36.052802637295	640.074993919001	759.435993427333	40.715516123946	635.609879969587	822.204048675532	43.231189141268	405.257561917645	899.317066163940	54.548880630675	329.039661834285	960.913366149356	138.281996382138	351.232879429929	1097.142267776483	122.894888166508	333.205629794695	575.685537940379	1091.090552518518	253.120542423113	611.657212219952	835.468583527692	219.892994261596	819.620833798946	1109.323541875575	810.526037761161	1069.016816964025	1120.007479038008	764.840081121001	
21	6.851428571429	704.704707630537	959.584394047794	371.184323590844	508.013529486850	1002.801602794504	551.316285998666	660.210579410839	1435.659181157489	361.261204469727	778.825326590527	1362.136425826385	508.836318059365	714.199350370043	1432.590472076407	692.651464119610	676.977371794140	1492.899459705642	513.014392765672	744.614954958859	938.320491698913	644.332316586994	751.098330366926	728.109219130932	613.397775692207	654.673895259830	629.588821700481	677.144973967222	714.042260027716	567.392397284277	593.574137642889	697.977053910327	480.927731247547	597.296738341423	779.962415859761	769.768249067939	398.290309382654	724.944025312799	644.463102879236	323.536193034971	825.369335569102	582.526307927230	385.270216097223	851.766784145798	521.807795461004	383.916344591477	841.771266463707	452.380931168437	371.245132551224	790.621005041840	318.200786057867	316.077134040730	885.154001298828	227.572078754350	372.622357999447	661.642616541380	396.015182809857	603.153734978386	581.268079503413	299.326669416348	663.253092483302	611.286613306167	202.077768013509	597.802064726483	462.552155772932	43.955223192514	564.013790792146	633.382290848157	96.183490501682	604.521835911600	543.843557797458	35.934857547249	640.097817955093	752.322780430604	40.534918235524	635.645450939736	816.078937973214	42.621670382909	406.830000311315	893.035066121991	52.028063617855	330.252517238438	956.847581853388	133.664103151765	352.402698553233	1092.361201539116	114.518474601171	333.714794736801	573.035000050008	1090.633307081852	251.419766386896	607.610752535788	834.866390869724	217.958513141055	821.751762182845	1109.084959397457	807.164167951345	1070.319670243689	1124.515634747078	759.449123928076	
22	6.865500000000	706.462905455662	957.879058127852	370.028998096179	508.742281343655	1001.500756517726	549.120290071400	660.059534463529	1434.288552668832	359.001050457376	778.608145457892	1361.318161780078	506.890019026912	713.390234338704	1431.756146959740	690.515712262999	676.270753610181	1491.767353753317	510.794654525873	745.233197947504	937.461505678016	643.504789547456	750.425180977242	726.792248514790	613.073038968133	652.850041221853	628.914806943999	676.509462753630	712.020565467905	566.126552600715	593.289586061436	695.062802282289	479.522378728553	596.754712618821	782.059066105343	768.124034876815	397.058197311617	725.371050442362	642.013558249494	323.707188667460	826.473516110507	580.627921865649	384.531731586779	852.003332497756	519.110823639822	383.982565824220	841.342915848982	449.151031320802	371.775825654513	787.966058982512	315.755055648397	317.126605470714	880.947174363053	223.781920281783	373.754935661283	657.868866058899	394.976796358011	602.757641975601	576.580147644638	299.160292029149	663.146936046539	605.443674077552	201.539809272595	597.679277277532	455.437938807445	43.978124698116	564.133520316084	626.330606118250	96.092064400755	604.626298204787	536.733312807699	35.822702450520	640.143869843742	745.184152845673	40.347928894953	635.692930246526	808.059855259629	41.638080681724	408.250659860025	884.959877563888	49.026336617567	331.369919533064	951.347584913019	128.171427131782	353.807788291471	1086.091622209183	104.661730182802	334.468017364262	570.610542562252	1089.950353637026	249.516066165212	604.229441640596	834.062258708803	215.907922098326	823.268125553905	1108.667383762371	803.900445076829	1071.122134802225	1127.832391922489	754.334173326069	
23	6.879571428571	708.496781954034	956.132233726725	368.810832323305	509.595339549888	1000.127695970659	546.659983601888	660.002742542610	1432.787551838846	356.498514614413	778.461073508517	1360.482398098869	504.789781289394	712.494238781313	1430.903910723961	688.176065811993	675.571997707612	1490.574711227272	508.310311908575	745.989449934099	936.486108662307	642.594164314832	749.971668183563	725.390249780807	612.653712004322	651.233752690549	628.177935451541	675.725765046243	710.241799532873	564.789183587754	592.872550239173	692.349926305749	478.020612845529	596.051835262318	784.337573339520	766.325884260289	395.976694671219	726.148108067478	639.638762048109	323.797178305205	827.655689118573	578.660981167562	384.058314621097	852.188878013367	516.196967647941	384.207055497569	840.825648601856	445.683598062776	372.346634699225	785.000317433671	313.156017505556	318.074757890312	876.145278856775	219.604683311565	374.957877263335	654.283638027752	393.875160122478	602.246459391487	572.018135723683	298.997272445408	662.968439108358	599.653589582366	200.979546421865	597.501471979499	448.329388091006	44.062296178686	564.265020003677	619.263204065869	96.004221659946	604.702723912951	529.621872200111	35.750014179051	640.205747301133	738.036196141325	40.145107747577	635.756628473212	798.887640076721	40.436847579197	409.454604962350	875.844108410819	45.826592937941	332.365112455648	944.956143415825	122.241343709701	355.411052310583	1078.910366587730	94.066759347663	335.524139596316	568.526592967329	1089.057050260562	247.395858110598	601.522182055161	833.059694463306	213.757507531820	824.147842526310	1108.074254250763	800.776628589128	1071.447581625900	1129.882126571656	749.535432130206	
24	6.893642857143	710.722163474524	954.431919401068	367.504650761218	510.551206074000	998.755199451932	543.972699919187	660.061470367690	1431.219400415331	353.777275014872	778.409714038608	1359.667725705537	502.543545424384	711.568169030654	1430.089962933736	685.643153132200	674.940026318091	1489.380857041179	505.573940680902	746.860530783102	935.436295843018	641.555935539103	749.728133209314	723.951842024023	612.084217452021	649.839323973843	627.413214879502	674.757308229232	708.717553375690	563.423305587904	592.280629303571	689.875133839195	476.454664345626	595.168482449737	786.667545581376	764.460148012820	395.047422803229	727.232992018649	637.474064219991	323.736665595110	828.838438919480	576.735716593737	383.830754245807	852.265331275400	513.235890464867	384.544599903153	840.237653479172	442.198183235216	372.878709472712	781.962327125937	310.565955741816	318.829528132348	871.103929620264	215.362805209789	376.151790058071	650.908464706280	392.749314903681	601.597456571509	567.597370330379	298.885640397652	662.688856706045	593.942999515422	200.442152461926	597.258526107972	441.249307563256	44.274874374441	564.403850768206	612.212101556658	95.943562143687	604.751094671793	522.530018890086	35.760509850747	640.274797082627	730.895837764264	39.917509300064	635.839305425335	789.234813662552	39.194048829424	410.408753804901	866.348740892146	42.714555245441	333.216795509419	938.138488510487	116.325816510680	357.134911345283	1071.312906896209	83.489501804071	336.858427719839	566.898270392301	1087.991890870964	245.052792129122	599.499329114734	831.888127486582	211.527375837013	824.375859958941	1107.332915747740	797.825970436163	1071.307321224036	1130.590391520948	745.086339264571	
